<?xml version="1.0" standalone="no"?>
<!DOCTYPE svg PUBLIC "-//W3C//DTD SVG 20010904//EN"
 "http://www.w3.org/TR/2001/REC-SVG-20010904/DTD/svg10.dtd">
<svg version="1.0" xmlns="http://www.w3.org/2000/svg"
 width="1917.000000pt" height="1917.000000pt" viewBox="0 0 1917.000000 1917.000000"
 preserveAspectRatio="xMidYMid meet">
<metadata>
Created by potrace 1.14, written by Peter Selinger 2001-2017
</metadata>
<g transform="translate(0.000000,1917.000000) scale(0.100000,-0.100000)"
fill="#000000" stroke="none">
<path d="M4219 15526 c-527 -260 -1738 -853 -2094 -1026 -99 -48 -328 -161
-510 -250 -181 -89 -420 -206 -530 -260 -110 -54 -351 -172 -535 -262 -184
-91 -381 -187 -437 -214 -101 -48 -103 -50 -103 -84 -1 -40 -2 -8644 -1 -8676
2 -52 109 -148 233 -211 151 -77 401 -150 610 -178 24 -3 52 -8 63 -9 11 -2
49 -7 85 -11 36 -4 75 -8 87 -10 26 -4 147 -15 218 -20 28 -2 154 -6 280 -10
l230 -7 375 102 c360 98 486 132 760 205 69 18 278 74 464 125 186 51 344 93
350 95 6 1 23 5 38 9 l26 8 1 1946 c0 1071 0 1961 1 1977 0 31 4 25 114 -170
39 -68 292 -507 323 -560 16 -27 32 -57 36 -65 4 -8 17 -31 28 -50 19 -32 240
-416 279 -485 23 -40 353 -616 448 -780 81 -140 101 -175 132 -231 48 -83 110
-192 335 -584 131 -228 243 -425 249 -437 13 -28 14 -28 101 -3 39 11 79 22
90 25 27 6 66 16 225 60 74 20 169 46 210 56 41 11 100 28 130 36 30 9 60 18
65 19 6 1 96 25 200 53 105 29 242 66 305 83 63 16 160 43 215 58 55 16 147
41 205 56 58 14 110 29 117 33 10 5 -70 159 -146 281 -5 8 -44 76 -87 150 -43
74 -149 259 -237 410 -87 151 -169 293 -181 315 -13 22 -57 99 -98 170 -42 72
-85 146 -96 165 -11 19 -61 107 -112 195 -51 88 -106 185 -123 215 -16 30 -35
62 -41 70 -6 8 -16 24 -22 35 -38 69 -66 118 -88 154 -14 22 -26 42 -26 45 0
2 -36 64 -79 139 -43 74 -90 154 -103 178 -40 70 -58 102 -190 329 -69 118
-136 235 -150 260 -14 25 -67 116 -117 202 l-91 158 34 82 c44 107 184 444
201 483 7 17 23 55 35 85 13 30 42 100 65 155 23 55 99 237 169 405 70 168
136 324 147 347 10 24 19 45 19 48 0 3 9 24 19 48 18 39 194 459 376 897 42
102 84 201 92 220 26 60 30 70 111 265 284 683 319 765 345 825 9 19 45 105
80 190 294 703 368 883 364 887 -3 2 -29 -3 -60 -12 -30 -8 -63 -17 -73 -20
-11 -2 -111 -29 -224 -60 -390 -107 -576 -157 -705 -192 -146 -39 -279 -75
-603 -163 -123 -33 -225 -60 -227 -60 -1 0 -22 -46 -45 -102 -24 -57 -54 -127
-67 -156 -12 -29 -23 -55 -23 -57 0 -2 -10 -28 -23 -57 -13 -29 -32 -73 -42
-98 -10 -25 -28 -69 -41 -98 -13 -29 -24 -55 -24 -58 0 -3 -7 -20 -14 -37 -17
-36 -68 -158 -251 -597 -70 -168 -140 -336 -157 -375 -16 -38 -33 -80 -39 -92
-5 -13 -13 -33 -18 -45 -41 -97 -74 -176 -106 -253 -20 -49 -43 -103 -50 -120
-7 -16 -133 -318 -280 -670 -147 -352 -309 -739 -360 -860 -50 -121 -168 -401
-260 -622 -93 -222 -171 -403 -174 -403 -3 0 -6 936 -6 2080 0 1144 -2 2080
-4 2080 -2 0 -85 -22 -185 -49 -99 -27 -190 -51 -201 -54 -45 -11 -444 -119
-490 -132 -27 -8 -201 -55 -385 -104 -184 -49 -367 -98 -406 -109 -59 -17 -95
-19 -225 -17 -188 4 -388 13 -449 21 -85 10 -390 84 -538 130 -408 126 -656
247 -718 350 -41 68 -8 102 171 177 115 48 409 177 520 227 22 10 204 91 405
180 201 88 379 167 395 175 17 7 134 59 260 115 127 56 249 110 272 120 23 11
117 53 210 94 92 40 198 88 236 105 37 17 69 31 72 31 3 0 60 25 180 80 22 10
180 80 350 155 171 75 351 155 400 177 106 47 78 35 435 192 157 69 291 129
299 134 11 6 14 46 13 201 0 106 -2 194 -4 195 -1 2 -105 -47 -229 -108z"/>
<path d="M4805 15255 c-94 -45 -248 -115 -250 -115 -2 0 -39 -16 -82 -36 -43
-20 -116 -53 -163 -74 -47 -21 -114 -51 -150 -68 -36 -16 -87 -40 -115 -52
-50 -23 -120 -54 -230 -105 -33 -15 -93 -42 -133 -61 -41 -19 -75 -34 -77 -34
-2 0 -56 -25 -120 -55 -65 -30 -119 -55 -120 -55 -2 0 -43 -18 -90 -40 -47
-22 -88 -40 -89 -40 -2 0 -52 -22 -110 -50 -58 -27 -108 -50 -111 -50 -2 0
-41 -17 -87 -39 -93 -44 -88 -41 -473 -216 -154 -70 -313 -142 -353 -161 -41
-19 -75 -34 -77 -34 -2 0 -36 -15 -77 -34 -40 -18 -100 -46 -133 -61 -33 -15
-82 -37 -110 -50 -27 -13 -77 -35 -110 -50 -33 -15 -82 -37 -110 -50 -27 -13
-122 -56 -210 -95 -141 -64 -264 -120 -360 -165 -59 -28 -10 -14 173 51 103
36 250 87 327 114 77 27 237 82 355 124 118 41 312 108 430 149 118 41 262 91
320 112 58 20 161 56 230 80 69 24 231 80 360 125 262 91 357 124 475 164 44
15 89 31 100 36 11 4 153 54 315 110 162 57 365 127 450 157 85 29 220 76 299
103 80 28 147 52 149 55 4 3 6 360 3 413 -1 15 -8 15 -46 -3z"/>
<path d="M5515 15006 c-16 -8 -187 -78 -380 -156 -330 -134 -515 -210 -560
-230 -20 -9 -565 -230 -800 -325 -246 -100 -580 -236 -610 -249 -16 -8 -149
-62 -295 -121 -146 -59 -278 -113 -295 -120 -16 -7 -115 -48 -220 -90 -104
-42 -203 -83 -220 -90 -56 -25 -721 -295 -753 -306 -18 -6 -32 -15 -32 -20 0
-5 10 -5 22 2 11 6 118 44 237 84 119 40 410 139 646 220 237 81 468 160 515
176 47 15 150 50 230 78 80 27 323 110 540 184 217 74 463 158 545 186 139 48
217 74 665 226 91 31 172 59 180 62 8 3 20 7 25 9 16 4 558 191 585 202 25 10
25 10 23 128 -2 165 -2 164 -10 164 -5 0 -21 -7 -38 -14z"/>
<path d="M6115 14801 c-55 -20 -264 -99 -465 -175 -201 -75 -372 -140 -380
-143 -8 -3 -17 -7 -20 -8 -3 -1 -17 -7 -31 -13 -15 -6 -64 -24 -110 -41 -46
-16 -124 -45 -174 -64 -49 -19 -265 -100 -480 -181 -214 -81 -397 -149 -405
-153 -8 -3 -17 -7 -20 -8 -12 -2 -127 -46 -145 -55 -11 -5 -83 -32 -160 -60
-77 -28 -149 -55 -160 -59 -11 -5 -57 -23 -102 -40 -46 -17 -118 -44 -160 -60
-43 -17 -224 -84 -403 -151 -179 -67 -352 -132 -385 -145 -33 -13 -105 -40
-160 -60 -55 -20 -109 -40 -120 -45 -11 -5 -47 -19 -80 -31 -73 -25 -183 -67
-210 -79 -11 -5 -41 -16 -68 -26 -26 -9 -46 -18 -45 -20 4 -3 48 10 338 96
113 34 221 66 240 72 19 5 116 35 215 65 99 30 187 56 195 58 8 2 69 20 135
40 66 19 152 45 190 56 39 12 90 27 115 35 73 23 614 185 630 189 8 2 69 20
135 40 66 20 149 45 185 55 36 10 164 49 285 85 121 37 227 68 235 70 8 2 105
31 215 65 110 33 205 62 210 64 6 1 30 8 55 15 25 7 97 29 160 48 63 19 151
46 195 58 89 26 479 142 593 177 l72 23 0 172 c0 95 -3 173 -7 172 -5 0 -53
-17 -108 -38z"/>
<path d="M6580 14501 c-157 -53 -429 -146 -605 -205 -176 -59 -327 -110 -335
-113 -8 -4 -17 -7 -20 -8 -45 -13 -166 -54 -460 -154 -195 -67 -508 -173 -695
-236 -187 -63 -574 -194 -860 -291 -800 -271 -978 -330 -1143 -385 -85 -28
-152 -52 -150 -54 2 -2 37 6 78 17 41 10 101 26 134 34 86 21 396 103 436 114
32 10 816 216 850 224 13 3 246 65 515 136 44 12 157 41 250 66 94 25 204 54
245 65 41 11 83 22 92 24 9 2 61 15 115 30 54 15 105 28 113 30 8 1 103 26
210 55 107 28 237 62 288 76 50 13 136 36 190 50 53 14 102 27 107 28 23 6 79
21 230 61 88 23 243 64 345 90 102 26 192 50 200 53 19 6 29 9 60 17 14 3 30
7 35 9 6 2 27 6 48 11 20 4 38 12 38 19 1 6 2 84 3 174 1 139 -1 162 -14 161
-8 0 -143 -44 -300 -98z"/>
<path d="M8978 14285 c-2 -2 -21 -6 -43 -9 -88 -13 -113 -19 -196 -47 -230
-77 -427 -250 -519 -454 -21 -48 -66 -172 -68 -188 -2 -19 -15 -104 -18 -122
-3 -11 -5 -69 -5 -130 -1 -424 211 -751 566 -870 125 -42 223 -54 410 -51 149
3 201 8 300 30 116 25 218 56 232 69 3 4 7 205 7 447 l1 440 -306 0 -307 0 -1
-95 c-2 -93 -1 -95 21 -96 13 0 98 -1 191 -1 l167 -1 0 -274 0 -274 -33 -14
c-69 -29 -309 -47 -402 -30 -109 20 -149 32 -221 66 -183 89 -306 251 -350
460 -19 89 -25 285 -11 373 16 100 84 257 140 323 95 111 193 174 344 219 79
24 104 27 248 27 115 0 180 -5 230 -17 96 -22 95 -22 138 -40 29 -13 38 -14
42 -4 26 82 53 183 50 188 -2 4 -23 12 -47 19 -24 8 -54 17 -68 22 -14 4 -45
11 -70 15 -25 3 -70 10 -100 14 -50 7 -315 11 -322 5z"/>
<path d="M10473 13761 c-102 -35 -181 -108 -233 -216 -16 -33 -30 -53 -31 -45
0 8 -2 58 -4 110 -2 52 -4 105 -4 118 -1 21 -4 22 -106 22 l-105 0 5 -167 c2
-93 4 -390 5 -660 l0 -493 118 0 119 0 0 353 c0 193 3 380 7 415 15 147 85
264 191 320 42 22 63 26 132 27 47 0 84 4 84 10 7 46 2 211 -6 217 -19 14
-120 8 -172 -11z"/>
<path d="M12917 13755 c-112 -32 -217 -109 -279 -203 -10 -15 -18 -24 -19 -19
-5 26 -7 57 -8 132 l-1 85 -110 0 -110 0 4 -182 c3 -101 5 -519 6 -930 l0
-748 119 0 118 0 -1 346 c-1 190 2 350 5 355 3 5 18 -8 34 -30 42 -56 121
-107 211 -136 163 -54 364 -21 501 81 117 88 186 193 234 356 28 95 35 321 14
419 -56 263 -206 435 -421 485 -89 20 -203 16 -297 -11z m237 -195 c113 -43
208 -168 241 -321 19 -91 12 -266 -14 -349 -63 -199 -198 -303 -386 -296 -63
2 -92 9 -140 31 -108 52 -194 164 -211 275 -3 25 -6 110 -6 189 2 197 28 284
115 378 103 112 256 147 401 93z"/>
<path d="M14366 13764 c-90 -20 -198 -72 -262 -126 -122 -104 -194 -231 -225
-401 -11 -63 -14 -241 -5 -287 34 -161 90 -282 168 -362 130 -132 297 -195
493 -185 422 20 677 371 609 837 -27 181 -113 328 -249 425 -145 103 -339 139
-529 99z m295 -197 c107 -52 183 -155 225 -302 18 -61 24 -226 12 -295 -40
-224 -191 -380 -372 -385 -249 -7 -421 213 -411 525 4 107 8 131 35 207 66
188 197 284 380 279 60 -2 89 -8 131 -29z"/>
<path d="M10893 13283 c2 -258 7 -484 11 -503 41 -185 142 -309 293 -358 74
-25 207 -27 290 -5 106 27 211 99 274 186 15 21 29 34 31 30 2 -4 6 -37 7 -73
3 -56 6 -94 10 -122 1 -5 48 -8 106 -8 l105 0 -5 138 c-2 75 -5 372 -5 660 l0
522 -120 0 -119 0 -3 -447 c-3 -447 -3 -448 -26 -495 -61 -122 -178 -201 -305
-205 -152 -4 -249 75 -286 234 -18 75 -19 92 -20 521 l-1 392 -121 0 -120 0 4
-467z"/>
<path d="M9215 11793 c-11 -3 -94 -23 -185 -45 -196 -47 -855 -205 -887 -213
l-23 -5 0 -520 0 -520 -330 0 -330 0 -1 -27 c-1 -36 -1 -744 0 -800 l1 -43
325 2 c179 1 327 -1 329 -3 3 -3 7 -565 9 -1249 2 -685 6 -1255 9 -1267 4 -12
10 -53 13 -90 4 -37 9 -75 10 -83 6 -28 37 -175 40 -190 83 -358 297 -637 599
-784 67 -33 222 -89 276 -100 95 -21 132 -27 190 -34 84 -9 454 -9 545 0 39 4
95 10 125 13 78 8 254 44 327 66 l63 20 -5 232 c-11 529 -15 650 -17 653 -2 1
-24 -2 -48 -7 -97 -23 -141 -29 -249 -38 -124 -10 -248 -6 -331 12 -125 26
-239 112 -305 231 -47 84 -72 169 -101 341 -3 22 -8 543 -9 1158 l-3 1117 61
0 c34 1 283 2 552 3 l490 2 0 430 0 430 -550 5 -550 5 -2 640 c0 352 -2 646
-2 653 -1 13 -3 13 -36 5z"/>
<path d="M13018 9498 l-3 -923 -42 61 c-40 59 -169 194 -184 194 -4 0 -14 6
-22 14 -8 8 -53 37 -101 64 -274 157 -670 187 -1001 76 -41 -14 -87 -32 -102
-39 -16 -8 -31 -15 -35 -15 -4 0 -47 -24 -97 -54 -309 -185 -519 -458 -637
-830 -14 -43 -27 -86 -29 -95 -2 -9 -10 -45 -19 -81 -8 -36 -18 -87 -22 -115
-3 -27 -8 -59 -11 -70 -9 -37 -11 -449 -3 -520 38 -314 129 -569 283 -794 67
-98 242 -274 333 -334 168 -111 352 -178 549 -202 57 -7 237 -7 275 -1 14 3
48 7 75 11 117 14 292 73 405 137 167 94 338 262 411 405 24 47 39 55 38 21
-1 -24 10 -270 16 -368 2 -30 4 -74 4 -97 l1 -43 254 0 255 0 -4 32 c-21 164
-24 453 -25 2571 l0 1917 -280 0 -280 0 -2 -922z m-669 -902 c196 -45 373
-154 479 -294 15 -20 32 -42 38 -49 7 -7 32 -54 57 -105 42 -85 69 -167 86
-258 8 -48 8 -803 -1 -865 -31 -220 -162 -444 -333 -572 -99 -74 -234 -137
-320 -149 -11 -1 -38 -7 -60 -11 -44 -10 -207 -9 -270 1 -310 54 -529 242
-663 571 -22 54 -59 189 -68 245 -3 19 -7 42 -9 50 -2 8 -7 50 -11 93 -42 520
111 966 412 1195 66 50 225 128 254 125 3 -1 12 3 21 7 9 5 38 12 65 16 27 3
51 8 53 9 5 6 243 -3 270 -9z"/>
<path d="M15715 9035 c-293 -64 -549 -292 -666 -593 -29 -75 -49 -81 -50 -14
0 43 -3 127 -14 427 -1 55 -4 106 -4 113 -1 9 -57 12 -245 12 l-245 0 5 -92
c2 -51 7 -127 10 -168 3 -41 7 -689 9 -1440 2 -751 4 -1368 4 -1372 1 -5 125
-8 276 -8 l275 0 1 850 c1 468 2 858 3 868 6 57 20 178 21 182 1 3 5 21 9 40
70 321 261 557 525 647 66 23 93 26 211 27 74 1 149 -1 165 -4 l30 -5 0 264
c0 256 -1 264 -20 269 -48 11 -244 9 -300 -3z"/>
<path d="M17400 9047 c-3 -3 -36 -7 -75 -11 -38 -3 -79 -8 -90 -10 -11 -2 -40
-7 -65 -11 -115 -19 -348 -89 -425 -128 -16 -9 -41 -20 -55 -26 -14 -6 -52
-26 -85 -45 -45 -25 -59 -38 -57 -52 6 -30 113 -338 120 -346 4 -4 18 -1 32 7
395 224 884 275 1170 124 190 -100 295 -306 304 -591 l3 -98 -26 0 c-105 -1
-316 -10 -366 -15 -33 -3 -80 -8 -105 -11 -25 -2 -56 -6 -70 -9 -14 -2 -47 -7
-73 -10 -120 -12 -374 -79 -510 -133 -391 -157 -624 -417 -691 -772 -21 -107
-14 -333 12 -425 84 -300 277 -506 568 -604 107 -36 202 -49 349 -49 368 -1
708 155 922 421 17 22 33 35 36 30 3 -4 8 -35 11 -68 4 -33 9 -71 11 -85 2
-14 6 -52 10 -85 3 -33 8 -79 11 -102 l6 -43 254 0 254 0 -6 53 c-3 28 -7 57
-9 64 -2 7 -7 45 -10 85 -4 40 -9 91 -12 113 -2 22 -7 301 -9 620 -6 847 -11
1197 -17 1225 -3 14 -8 42 -11 62 -44 296 -183 554 -379 705 -102 79 -288 164
-409 187 -13 2 -34 7 -48 10 -14 3 -41 8 -60 11 -42 7 -404 17 -410 12z m788
-1894 c-4 -301 -5 -322 -27 -383 -112 -318 -395 -520 -731 -522 -105 -1 -147
4 -194 22 -15 5 -26 7 -26 5 0 -3 -26 8 -57 24 -134 67 -226 187 -259 338 -13
60 -12 215 2 276 51 225 209 375 494 468 64 21 165 44 233 54 27 3 59 9 70 11
12 2 60 7 107 10 47 4 86 7 87 8 2 1 71 3 154 5 l150 2 -3 -318z"/>
</g>
</svg>
